{
  "accessors": [
    {
      "bufferView": 2,
      "componentType": 5126,
      "count": 1392,
      "max": [
        4.497488021850586,
        14.033623695373535,
        7.465075969696045
      ],
      "min": [
        0.0,
        10.316532135009766,
        0.0
      ],
      "type": "VEC3"
    },
    {
      "bufferView": 2,
      "byteOffset": 16704,
      "componentType": 5126,
      "count": 1392,
      "max": [
        0.9999013543128967,
        0.999654233455658,
        0.9998162388801575
      ],
      "min": [
        -0.9999013543128967,
        -0.9662920236587524,
        -0.9999956488609314
      ],
      "type": "VEC3"
    },
    {
      "bufferView": 3,
      "componentType": 5126,
      "count": 1392,
      "max": [
        0.9805514812469482,
        0.999637246131897,
        0.9972835779190063,
        1.0
      ],
      "min": [
        -0.9996172785758972,
        -0.9996373057365417,
        -0.9999309182167053,
        1.0
      ],
      "type": "VEC4"
    },
    {
      "bufferView": 1,
      "componentType": 5126,
      "count": 1392,
      "max": [
        0.895887017250061,
        0.9900000095367432
      ],
      "min": [
        0.009999999776482582,
        0.009999999776482582
      ],
      "type": "VEC2"
    },
    {
      "bufferView": 0,
      "componentType": 5125,
      "count": 6900,
      "type": "SCALAR"
    },
    {
      "bufferView": 2,
      "byteOffset": 33408,
      "componentType": 5126,
      "count": 382,
      "max": [
        4.489597320556641,
        0.8772459030151367,
        8.725656509399414
      ],
      "min": [
        0.007890939712524414,
        0.0,
        6.091989994049072
      ],
      "type": "VEC3"
    },
    {
      "bufferView": 2,
      "byteOffset": 37992,
      "componentType": 5126,
      "count": 382,
      "max": [
        0.8829944133758545,
        0.9849152565002441,
        0.9441008567810059
      ],
      "min": [
        -0.8829992413520813,
        -0.970463216304779,
        -0.9963962435722351
      ],
      "type": "VEC3"
    },
    {
      "bufferView": 3,
      "byteOffset": 22272,
      "componentType": 5126,
      "count": 382,
      "max": [
        0.9943681359291077,
        0.7678768038749695,
        0.9825081825256348,
        1.0
      ],
      "min": [
        -0.9936524629592896,
        -0.8047018051147461,
        -0.8513872623443604,
        -1.0
      ],
      "type": "VEC4"
    },
    {
      "bufferView": 1,
      "byteOffset": 11136,
      "componentType": 5126,
      "count": 382,
      "max": [
        0.9900000095367432,
        0.9900000095367432
      ],
      "min": [
        0.009999999776482582,
        0.4686889946460724
      ],
      "type": "VEC2"
    },
    {
      "bufferView": 0,
      "byteOffset": 27600,
      "componentType": 5125,
      "count": 1476,
      "type": "SCALAR"
    },
    {
      "bufferView": 2,
      "byteOffset": 42576,
      "componentType": 5126,
      "count": 940,
      "max": [
        3.807675838470459,
        13.385309219360352,
        9.525327682495117
      ],
      "min": [
        0.6898120641708374,
        1.1657686233520508,
        4.053651809692383
      ],
      "type": "VEC3"
    },
    {
      "bufferView": 2,
      "byteOffset": 53856,
      "componentType": 5126,
      "count": 940,
      "max": [
        0.9994006156921387,
        0.7357754707336426,
        0.9998923540115356
      ],
      "min": [
        -0.9994006156921387,
        -0.8400720953941345,
        -0.9999986290931702
      ],
      "type": "VEC3"
    },
    {
      "bufferView": 3,
      "byteOffset": 28384,
      "componentType": 5126,
      "count": 940,
      "max": [
        0.6210291981697083,
        -0.47754546999931335,
        0.7358395457267761,
        1.0
      ],
      "min": [
        -0.6222691535949707,
        -0.9999037981033325,
        -0.33122438192367554,
        1.0
      ],
      "type": "VEC4"
    },
    {
      "bufferView": 1,
      "byteOffset": 14192,
      "componentType": 5126,
      "count": 940,
      "max": [
        0.9900000095367432,
        0.9900000095367432
      ],
      "min": [
        0.009999999776482582,
        0.2318120002746582
      ],
      "type": "VEC2"
    },
    {
      "bufferView": 0,
      "byteOffset": 33504,
      "componentType": 5125,
      "count": 4884,
      "type": "SCALAR"
    },
    {
      "bufferView": 2,
      "byteOffset": 65136,
      "componentType": 5126,
      "count": 448,
      "max": [
        3.6506659984588623,
        2.22971248626709,
        9.570064544677734
      ],
      "min": [
        0.8468220233917236,
        1.1006488800048828,
        7.851187229156494
      ],
      "type": "VEC3"
    },
    {
      "bufferView": 2,
      "byteOffset": 70512,
      "componentType": 5126,
      "count": 448,
      "max": [
        0.9947856664657593,
        0.7358438372612,
        0.9839376211166382
      ],
      "min": [
        -0.9947856664657593,
        -0.9999083280563354,
        -0.8058231472969055
      ],
      "type": "VEC3"
    },
    {
      "bufferView": 3,
      "byteOffset": 43424,
      "componentType": 5126,
      "count": 448,
      "max": [
        0.9998760223388672,
        0.9998106956481934,
        0.8570665121078491,
        1.0
      ],
      "min": [
        -0.530645489692688,
        -0.9998107552528381,
        -0.8570651412010193,
        -1.0
      ],
      "type": "VEC4"
    },
    {
      "bufferView": 1,
      "byteOffset": 21712,
      "componentType": 5126,
      "count": 448,
      "max": [
        0.9900000095367432,
        0.9900000095367432
      ],
      "min": [
        0.009999999776482582,
        0.0691550001502037
      ],
      "type": "VEC2"
    },
    {
      "bufferView": 0,
      "byteOffset": 53040,
      "componentType": 5125,
      "count": 2448,
      "type": "SCALAR"
    },
    {
      "bufferView": 2,
      "byteOffset": 75888,
      "componentType": 5126,
      "count": 644,
      "max": [
        3.155452013015747,
        1.5963306427001953,
        8.025018692016602
      ],
      "min": [
        1.3420360088348389,
        0.7002744674682617,
        7.22153377532959
      ],
      "type": "VEC3"
    },
    {
      "bufferView": 2,
      "byteOffset": 83616,
      "componentType": 5126,
      "count": 644,
      "max": [
        0.9960541129112244,
        0.990413248538971,
        0.9882315397262573
      ],
      "min": [
        -0.9960543513298035,
        -0.9901185035705566,
        -0.9901146292686462
      ],
      "type": "VEC3"
    },
    {
      "bufferView": 3,
      "byteOffset": 50592,
      "componentType": 5126,
      "count": 644,
      "max": [
        0.926541805267334,
        0.9991284012794495,
        0.7555965781211853,
        1.0
      ],
      "min": [
        -0.9983437061309814,
        -0.9941002130508423,
        -0.966938853263855,
        1.0
      ],
      "type": "VEC4"
    },
    {
      "bufferView": 1,
      "byteOffset": 25296,
      "componentType": 5126,
      "count": 644,
      "max": [
        0.9900000095367432,
        0.9900000095367432
      ],
      "min": [
        0.009999999776482582,
        0.012125999666750431
      ],
      "type": "VEC2"
    },
    {
      "bufferView": 0,
      "byteOffset": 62832,
      "componentType": 5125,
      "count": 3120,
      "type": "SCALAR"
    },
    {
      "bufferView": 2,
      "byteOffset": 91344,
      "componentType": 5126,
      "count": 1338,
      "max": [
        3.9451560974121094,
        6.485791206359863,
        6.380354881286621
      ],
      "min": [
        0.5523320436477661,
        2.9423584938049316,
        0.002786993980407715
      ],
      "type": "VEC3"
    },
    {
      "bufferView": 2,
      "byteOffset": 107400,
      "componentType": 5126,
      "count": 1338,
      "max": [
        0.9994527697563171,
        0.9906712174415588,
        0.9999560117721558
      ],
      "min": [
        -0.9994527697563171,
        -0.9987913370132446,
        -0.999941349029541
      ],
      "type": "VEC3"
    },
    {
      "bufferView": 3,
      "byteOffset": 60896,
      "componentType": 5126,
      "count": 1338,
      "max": [
        0.99996018409729,
        0.9934895038604736,
        0.8945537805557251,
        1.0
      ],
      "min": [
        -0.9999606609344482,
        -0.9999315738677979,
        -0.9971707463264465,
        1.0
      ],
      "type": "VEC4"
    },
    {
      "bufferView": 1,
      "byteOffset": 30448,
      "componentType": 5126,
      "count": 1338,
      "max": [
        0.9900000095367432,
        0.9900000095367432
      ],
      "min": [
        0.009999999776482582,
        0.14008000493049622
      ],
      "type": "VEC2"
    },
    {
      "bufferView": 0,
      "byteOffset": 75312,
      "componentType": 5125,
      "count": 6696,
      "type": "SCALAR"
    },
    {
      "bufferView": 2,
      "byteOffset": 123456,
      "componentType": 5126,
      "count": 1658,
      "max": [
        3.6850481033325195,
        1.8166704177856445,
        8.5801420211792
      ],
      "min": [
        0.812440037727356,
        0.2724008560180664,
        6.36372184753418
      ],
      "type": "VEC3"
    },
    {
      "bufferView": 2,
      "byteOffset": 143352,
      "componentType": 5126,
      "count": 1658,
      "max": [
        0.9982473850250244,
        0.9969968795776367,
        0.9998735189437866
      ],
      "min": [
        -0.998247504234314,
        -0.9986749887466431,
        -0.9999769926071167
      ],
      "type": "VEC3"
    },
    {
      "bufferView": 3,
      "byteOffset": 82304,
      "componentType": 5126,
      "count": 1658,
      "max": [
        0.9996889233589172,
        0.9991511702537537,
        0.9991982579231262,
        1.0
      ],
      "min": [
        -0.9902346134185791,
        -0.9989128112792969,
        -0.996533215045929,
        -1.0
      ],
      "type": "VEC4"
    },
    {
      "bufferView": 1,
      "byteOffset": 41152,
      "componentType": 5126,
      "count": 1658,
      "max": [
        0.9900000095367432,
        0.9900000095367432
      ],
      "min": [
        0.009999999776482582,
        0.01219599973410368
      ],
      "type": "VEC2"
    },
    {
      "bufferView": 0,
      "byteOffset": 102096,
      "componentType": 5125,
      "count": 9504,
      "type": "SCALAR"
    },
    {
      "bufferView": 2,
      "byteOffset": 163248,
      "componentType": 5126,
      "count": 250,
      "max": [
        2.57049298286438,
        0.6290159225463867,
        7.491631031036377
      ],
      "min": [
        1.926995038986206,
        0.1685171127319336,
        6.7921462059021
      ],
      "type": "VEC3"
    },
    {
      "bufferView": 2,
      "byteOffset": 166248,
      "componentType": 5126,
      "count": 250,
      "max": [
        0.9877062439918518,
        0.9672892093658447,
        0.6857379674911499
      ],
      "min": [
        -0.9877102375030518,
        -0.9958874583244324,
        -0.9955496191978455
      ],
      "type": "VEC3"
    },
    {
      "bufferView": 3,
      "byteOffset": 108832,
      "componentType": 5126,
      "count": 250,
      "max": [
        1.0,
        0.9812373518943787,
        0.9899488687515259,
        1.0
      ],
      "min": [
        -1.0,
        -0.9812291264533997,
        -0.9899469614028931,
        1.0
      ],
      "type": "VEC4"
    },
    {
      "bufferView": 1,
      "byteOffset": 54416,
      "componentType": 5126,
      "count": 250,
      "max": [
        0.8901209831237793,
        0.9900000095367432
      ],
      "min": [
        0.009999999776482582,
        0.009999999776482582
      ],
      "type": "VEC2"
    },
    {
      "bufferView": 0,
      "byteOffset": 140112,
      "componentType": 5125,
      "count": 1200,
      "type": "SCALAR"
    },
    {
      "bufferView": 2,
      "byteOffset": 169248,
      "componentType": 5126,
      "count": 246,
      "max": [
        3.0194590091705322,
        18.09412384033203,
        12.457805633544922
      ],
      "min": [
        1.4780290126800537,
        13.123664855957031,
        6.788476943969727
      ],
      "type": "VEC3"
    },
    {
      "bufferView": 2,
      "byteOffset": 172200,
      "componentType": 5126,
      "count": 246,
      "max": [
        0.9954751133918762,
        0.9971657395362854,
        0.9996120929718018
      ],
      "min": [
        -0.9954751133918762,
        -0.7955132722854614,
        -0.7259901762008667
      ],
      "type": "VEC3"
    },
    {
      "bufferView": 3,
      "byteOffset": 112832,
      "componentType": 5126,
      "count": 246,
      "max": [
        0.9995036721229553,
        0.12209153920412064,
        0.02532503381371498,
        1.0
      ],
      "min": [
        -0.999369740486145,
        -0.8841014504432678,
        -0.952397882938385,
        1.0
      ],
      "type": "VEC4"
    },
    {
      "bufferView": 1,
      "byteOffset": 56416,
      "componentType": 5126,
      "count": 246,
      "max": [
        0.9900000095367432,
        0.9900000095367432
      ],
      "min": [
        0.009999999776482582,
        0.4558340013027191
      ],
      "type": "VEC2"
    },
    {
      "bufferView": 0,
      "byteOffset": 144912,
      "componentType": 5125,
      "count": 1248,
      "type": "SCALAR"
    }
  ],
  "asset": {
    "extras": {
      "author": "liye.yan1994 (https://sketchfab.com/liye.yan1994)",
      "license": "CC-BY-4.0 (http://creativecommons.org/licenses/by/4.0/)",
      "source": "https://sketchfab.com/3d-models/cat-husa-e1f996075ece4f26855879eaaae17790",
      "title": "Cat Husa"
    },
    "generator": "Sketchfab-12.67.0",
    "version": "2.0"
  },
  "bufferViews": [
    {
      "buffer": 0,
      "byteLength": 149904,
      "name": "floatBufferViews",
      "target": 34963
    },
    {
      "buffer": 0,
      "byteLength": 58384,
      "byteOffset": 149904,
      "byteStride": 8,
      "name": "floatBufferViews",
      "target": 34962
    },
    {
      "buffer": 0,
      "byteLength": 175152,
      "byteOffset": 208288,
      "byteStride": 12,
      "name": "floatBufferViews",
      "target": 34962
    },
    {
      "buffer": 0,
      "byteLength": 116768,
      "byteOffset": 383440,
      "byteStride": 16,
      "name": "floatBufferViews",
      "target": 34962
    }
  ],
  "buffers": [
    {
      "byteLength": 500208,
      "uri": "scene.bin"
    }
  ],
  "images": [
    {
      "uri": "textures/backleg_baseColor.jpeg"
    },
    {
      "uri": "textures/backleg_normal.png"
    },
    {
      "uri": "textures/beard_baseColor.jpeg"
    },
    {
      "uri": "textures/beard_normal.png"
    },
    {
      "uri": "textures/body_baseColor.jpeg"
    },
    {
      "uri": "textures/body_normal.png"
    },
    {
      "uri": "textures/material_baseColor.jpeg"
    },
    {
      "uri": "textures/material_normal.png"
    },
    {
      "uri": "textures/material_4_baseColor.jpeg"
    },
    {
      "uri": "textures/material_4_normal.png"
    },
    {
      "uri": "textures/frontleg_baseColor.jpeg"
    },
    {
      "uri": "textures/frontleg_normal.png"
    },
    {
      "uri": "textures/head_baseColor.jpeg"
    },
    {
      "uri": "textures/head_normal.png"
    },
    {
      "uri": "textures/nose_baseColor.jpeg"
    },
    {
      "uri": "textures/nose_normal.png"
    },
    {
      "uri": "textures/tail_baseColor.jpeg"
    },
    {
      "uri": "textures/tail_normal.png"
    }
  ],
  "materials": [
    {
      "doubleSided": true,
      "name": "backleg",
      "normalTexture": {
        "index": 1
      },
      "pbrMetallicRoughness": {
        "baseColorTexture": {
          "index": 0
        },
        "metallicFactor": 0.0,
        "roughnessFactor": 0.6
      }
    },
    {
      "doubleSided": true,
      "name": "beard",
      "normalTexture": {
        "index": 3
      },
      "pbrMetallicRoughness": {
        "baseColorTexture": {
          "index": 2
        },
        "metallicFactor": 0.0,
        "roughnessFactor": 0.6
      }
    },
    {
      "doubleSided": true,
      "name": "body",
      "normalTexture": {
        "index": 5
      },
      "pbrMetallicRoughness": {
        "baseColorTexture": {
          "index": 4
        },
        "metallicFactor": 0.0,
        "roughnessFactor": 0.6
      }
    },
    {
      "doubleSided": true,
      "name": "material",
      "normalTexture": {
        "index": 7
      },
      "pbrMetallicRoughness": {
        "baseColorTexture": {
          "index": 6
        },
        "metallicFactor": 0.0,
        "roughnessFactor": 0.6
      }
    },
    {
      "doubleSided": true,
      "name": "material_4",
      "normalTexture": {
        "index": 9
      },
      "pbrMetallicRoughness": {
        "baseColorTexture": {
          "index": 8
        },
        "metallicFactor": 0.0,
        "roughnessFactor": 0.6
      }
    },
    {
      "doubleSided": true,
      "name": "frontleg",
      "normalTexture": {
        "index": 11
      },
      "pbrMetallicRoughness": {
        "baseColorTexture": {
          "index": 10
        },
        "metallicFactor": 0.0,
        "roughnessFactor": 0.6
      }
    },
    {
      "doubleSided": true,
      "name": "head",
      "normalTexture": {
        "index": 13
      },
      "pbrMetallicRoughness": {
        "baseColorTexture": {
          "index": 12
        },
        "metallicFactor": 0.0,
        "roughnessFactor": 0.6
      }
    },
    {
      "doubleSided": true,
      "name": "nose",
      "normalTexture": {
        "index": 15
      },
      "pbrMetallicRoughness": {
        "baseColorTexture": {
          "index": 14
        },
        "metallicFactor": 0.0,
        "roughnessFactor": 0.6
      }
    },
    {
      "doubleSided": true,
      "name": "tail",
      "normalTexture": {
        "index": 17
      },
      "pbrMetallicRoughness": {
        "baseColorTexture": {
          "index": 16
        },
        "metallicFactor": 0.0,
        "roughnessFactor": 0.6
      }
    }
  ],
  "meshes": [
    {
      "name": "Object_0",
      "primitives": [
        {
          "attributes": {
            "NORMAL": 1,
            "POSITION": 0,
            "TANGENT": 2,
            "TEXCOORD_0": 3
          },
          "indices": 4,
          "material": 0,
          "mode": 4
        }
      ]
    },
    {
      "name": "Object_1",
      "primitives": [
        {
          "attributes": {
            "NORMAL": 6,
            "POSITION": 5,
            "TANGENT": 7,
            "TEXCOORD_0": 8
          },
          "indices": 9,
          "material": 1,
          "mode": 4
        }
      ]
    },
    {
      "name": "Object_2",
      "primitives": [
        {
          "attributes": {
            "NORMAL": 11,
            "POSITION": 10,
            "TANGENT": 12,
            "TEXCOORD_0": 13
          },
          "indices": 14,
          "material": 2,
          "mode": 4
        }
      ]
    },
    {
      "name": "Object_3",
      "primitives": [
        {
          "attributes": {
            "NORMAL": 16,
            "POSITION": 15,
            "TANGENT": 17,
            "TEXCOORD_0": 18
          },
          "indices": 19,
          "material": 3,
          "mode": 4
        }
      ]
    },
    {
      "name": "Object_4",
      "primitives": [
        {
          "attributes": {
            "NORMAL": 21,
            "POSITION": 20,
            "TANGENT": 22,
            "TEXCOORD_0": 23
          },
          "indices": 24,
          "material": 4,
          "mode": 4
        }
      ]
    },
    {
      "name": "Object_5",
      "primitives": [
        {
          "attributes": {
            "NORMAL": 26,
            "POSITION": 25,
            "TANGENT": 27,
            "TEXCOORD_0": 28
          },
          "indices": 29,
          "material": 5,
          "mode": 4
        }
      ]
    },
    {
      "name": "Object_6",
      "primitives": [
        {
          "attributes": {
            "NORMAL": 31,
            "POSITION": 30,
            "TANGENT": 32,
            "TEXCOORD_0": 33
          },
          "indices": 34,
          "material": 6,
          "mode": 4
        }
      ]
    },
    {
      "name": "Object_7",
      "primitives": [
        {
          "attributes": {
            "NORMAL": 36,
            "POSITION": 35,
            "TANGENT": 37,
            "TEXCOORD_0": 38
          },
          "indices": 39,
          "material": 7,
          "mode": 4
        }
      ]
    },
    {
      "name": "Object_8",
      "primitives": [
        {
          "attributes": {
            "NORMAL": 41,
            "POSITION": 40,
            "TANGENT": 42,
            "TEXCOORD_0": 43
          },
          "indices": 44,
          "material": 8,
          "mode": 4
        }
      ]
    }
  ],
  "nodes": [
    {
      "children": [
        1
      ],
      "matrix": [
        1.0,
        0.0,
        0.0,
        0.0,
        0.0,
        2.220446049250313e-16,
        -1.0,
        0.0,
        0.0,
        1.0,
        2.220446049250313e-16,
        0.0,
        0.0,
        0.0,
        0.0,
        1.0
      ],
      "name": "Sketchfab_model"
    },
    {
      "children": [
        2,
        3,
        4,
        5,
        6,
        7,
        8,
        9,
        10
      ],
      "matrix": [
        1.0,
        0.0,
        0.0,
        0.0,
        0.0,
        1.0,
        0.0,
        0.0,
        0.0,
        0.0,
        1.0,
        0.0,
        -2.248744010925293,
        -9.361403465270996,
        -0.8324170112609863,
        1.0
      ],
      "name": "husa.obj.cleaner.gles"
    },
    {
      "mesh": 0,
      "name": "Object_2"
    },
    {
      "mesh": 1,
      "name": "Object_3"
    },
    {
      "mesh": 2,
      "name": "Object_4"
    },
    {
      "mesh": 3,
      "name": "Object_5"
    },
    {
      "mesh": 4,
      "name": "Object_6"
    },
    {
      "mesh": 5,
      "name": "Object_7"
    },
    {
      "mesh": 6,
      "name": "Object_8"
    },
    {
      "mesh": 7,
      "name": "Object_9"
    },
    {
      "mesh": 8,
      "name": "Object_10"
    }
  ],
  "samplers": [
    {
      "magFilter": 9729,
      "minFilter": 9987,
      "wrapS": 10497,
      "wrapT": 10497
    }
  ],
  "scene": 0,
  "scenes": [
    {
      "name": "Sketchfab_Scene",
      "nodes": [
        0
      ]
    }
  ],
  "textures": [
    {
      "sampler": 0,
      "source": 0
    },
    {
      "sampler": 0,
      "source": 1
    },
    {
      "sampler": 0,
      "source": 2
    },
    {
      "sampler": 0,
      "source": 3
    },
    {
      "sampler": 0,
      "source": 4
    },
    {
      "sampler": 0,
      "source": 5
    },
    {
      "sampler": 0,
      "source": 6
    },
    {
      "sampler": 0,
      "source": 7
    },
    {
      "sampler": 0,
      "source": 8
    },
    {
      "sampler": 0,
      "source": 9
    },
    {
      "sampler": 0,
      "source": 10
    },
    {
      "sampler": 0,
      "source": 11
    },
    {
      "sampler": 0,
      "source": 12
    },
    {
      "sampler": 0,
      "source": 13
    },
    {
      "sampler": 0,
      "source": 14
    },
    {
      "sampler": 0,
      "source": 15
    },
    {
      "sampler": 0,
      "source": 16
    },
    {
      "sampler": 0,
      "source": 17
    }
  ]
}
