{
  "accessors": [
    {
      "bufferView": 2,
      "componentType": 5126,
      "count": 3993,
      "max": [
        13.835074424743652,
        4.095218181610107,
        23.248414993286133
      ],
      "min": [
        -22.119382858276367,
        -4.0925188064575195,
        -0.14334499835968018
      ],
      "type": "VEC3"
    },
    {
      "bufferView": 2,
      "byteOffset": 47916,
      "componentType": 5126,
      "count": 3993,
      "max": [
        0.9975884556770325,
        0.999929666519165,
        0.9999990463256836
      ],
      "min": [
        -0.9990052580833435,
        -0.9998688697814941,
        -0.9997894167900085
      ],
      "type": "VEC3"
    },
    {
      "bufferView": 1,
      "componentType": 5126,
      "count": 3993,
      "max": [
        0.9902340173721313,
        0.9882050156593323
      ],
      "min": [
        0.00929300021380186,
        0.0029299999587237835
      ],
      "type": "VEC2"
    },
    {
      "bufferView": 0,
      "componentType": 5125,
      "count": 21702,
      "type": "SCALAR"
    },
    {
      "bufferView": 2,
      "byteOffset": 95832,
      "componentType": 5126,
      "count": 174,
      "max": [
        14.833474159240723,
        1.1419249773025513,
        23.177732467651367
      ],
      "min": [
        14.646267890930176,
        -1.1440999507904053,
        22.644248962402344
      ],
      "type": "VEC3"
    },
    {
      "bufferView": 2,
      "byteOffset": 97920,
      "componentType": 5126,
      "count": 174,
      "max": [
        0.9989422559738159,
        0.8550893664360046,
        0.7715045809745789
      ],
      "min": [
        0.505591094493866,
        -0.8550135493278503,
        -0.6447853446006775
      ],
      "type": "VEC3"
    },
    {
      "bufferView": 1,
      "byteOffset": 31944,
      "componentType": 5126,
      "count": 174,
      "max": [
        0.9321290254592896,
        0.9326170086860657
      ],
      "min": [
        0.06738299876451492,
        0.06787099689245224
      ],
      "type": "VEC2"
    },
    {
      "bufferView": 0,
      "byteOffset": 86808,
      "componentType": 5125,
      "count": 360,
      "type": "SCALAR"
    },
    {
      "bufferView": 2,
      "byteOffset": 100008,
      "componentType": 5126,
      "count": 402,
      "max": [
        13.955838203430176,
        2.7518999576568604,
        21.47522735595703
      ],
      "min": [
        8.455334663391113,
        -2.7909998893737793,
        16.666996002197266
      ],
      "type": "VEC3"
    },
    {
      "bufferView": 2,
      "byteOffset": 104832,
      "componentType": 5126,
      "count": 402,
      "max": [
        0.9999953508377075,
        0.9999990463256836,
        0.9999954700469971
      ],
      "min": [
        -0.9999953508377075,
        -0.9999990463256836,
        -0.9999949932098389
      ],
      "type": "VEC3"
    },
    {
      "bufferView": 1,
      "byteOffset": 33336,
      "componentType": 5126,
      "count": 402,
      "max": [
        0.9667969942092896,
        0.6621090173721313
      ],
      "min": [
        0.6796879768371582,
        0.004395000170916319
      ],
      "type": "VEC2"
    },
    {
      "bufferView": 0,
      "byteOffset": 88248,
      "componentType": 5125,
      "count": 1377,
      "type": "SCALAR"
    },
    {
      "bufferView": 2,
      "byteOffset": 109656,
      "componentType": 5126,
      "count": 2692,
      "max": [
        18.021018981933594,
        2.745924949645996,
        27.252668380737305
      ],
      "min": [
        10.230560302734375,
        -2.7481000423431396,
        18.994169235229492
      ],
      "type": "VEC3"
    },
    {
      "bufferView": 2,
      "byteOffset": 141960,
      "componentType": 5126,
      "count": 2692,
      "max": [
        0.9994145631790161,
        0.9992735385894775,
        0.9987684488296509
      ],
      "min": [
        -0.9994248151779175,
        -0.9992735385894775,
        -0.9997463822364807
      ],
      "type": "VEC3"
    },
    {
      "bufferView": 1,
      "byteOffset": 36552,
      "componentType": 5126,
      "count": 2692,
      "max": [
        0.9951170086860657,
        0.9987999796867371
      ],
      "min": [
        0.0067980000749230385,
        0.015625
      ],
      "type": "VEC2"
    },
    {
      "bufferView": 0,
      "byteOffset": 93756,
      "componentType": 5125,
      "count": 14364,
      "type": "SCALAR"
    },
    {
      "bufferView": 2,
      "byteOffset": 174264,
      "componentType": 5126,
      "count": 3632,
      "max": [
        17.08220672607422,
        4.3439249992370605,
        25.300806045532227
      ],
      "min": [
        -22.4344482421875,
        -4.497176170349121,
        4.279325008392334
      ],
      "type": "VEC3"
    },
    {
      "bufferView": 2,
      "byteOffset": 217848,
      "componentType": 5126,
      "count": 3632,
      "max": [
        0.9997017979621887,
        0.9999382495880127,
        0.9999953508377075
      ],
      "min": [
        -0.9981065392494202,
        -0.9999382495880127,
        -0.9991991519927979
      ],
      "type": "VEC3"
    },
    {
      "bufferView": 1,
      "byteOffset": 58088,
      "componentType": 5126,
      "count": 3632,
      "max": [
        1.0058590173721313,
        0.9968010187149048
      ],
      "min": [
        -0.008797000162303448,
        -0.0019529999699443579
      ],
      "type": "VEC2"
    },
    {
      "bufferView": 0,
      "byteOffset": 151212,
      "componentType": 5125,
      "count": 13158,
      "type": "SCALAR"
    },
    {
      "bufferView": 2,
      "byteOffset": 261432,
      "componentType": 5126,
      "count": 166,
      "max": [
        14.887591361999512,
        1.0967249870300293,
        23.109695434570313
      ],
      "min": [
        14.708925247192383,
        -1.0996750593185425,
        22.725088119506836
      ],
      "type": "VEC3"
    },
    {
      "bufferView": 2,
      "byteOffset": 263424,
      "componentType": 5126,
      "count": 166,
      "max": [
        0.9861464500427246,
        0.919568657875061,
        0.9030326008796692
      ],
      "min": [
        0.37809059023857117,
        -0.919609010219574,
        -0.7498840093612671
      ],
      "type": "VEC3"
    },
    {
      "bufferView": 1,
      "byteOffset": 87144,
      "componentType": 5126,
      "count": 166,
      "max": [
        1.0,
        0.6596680283546448
      ],
      "min": [
        0.0,
        0.16699199378490448
      ],
      "type": "VEC2"
    },
    {
      "bufferView": 0,
      "byteOffset": 203844,
      "componentType": 5125,
      "count": 456,
      "type": "SCALAR"
    },
    {
      "bufferView": 2,
      "byteOffset": 265416,
      "componentType": 5126,
      "count": 1471,
      "max": [
        17.43178939819336,
        1.2910250425338745,
        22.301362991333008
      ],
      "min": [
        11.660026550292969,
        -1.2975000143051147,
        19.160669326782227
      ],
      "type": "VEC3"
    },
    {
      "bufferView": 2,
      "byteOffset": 283068,
      "componentType": 5126,
      "count": 1471,
      "max": [
        0.9999423027038574,
        0.9995738863945007,
        0.999599039554596
      ],
      "min": [
        -0.9959499835968018,
        -0.9995738863945007,
        -0.9990309476852417
      ],
      "type": "VEC3"
    },
    {
      "bufferView": 1,
      "byteOffset": 88472,
      "componentType": 5126,
      "count": 1471,
      "max": [
        0.9897459745407104,
        0.9963020086288452
      ],
      "min": [
        0.01219900045543909,
        0.012206999585032463
      ],
      "type": "VEC2"
    },
    {
      "bufferView": 0,
      "byteOffset": 205668,
      "componentType": 5125,
      "count": 5844,
      "type": "SCALAR"
    }
  ],
  "asset": {
    "extras": {
      "author": "#3D $Resource$ (https://sketchfab.com/lopuh22721)",
      "license": "CC-BY-4.0 (http://creativecommons.org/licenses/by/4.0/)",
      "source": "https://sketchfab.com/3d-models/riley-8aedf051c5714409a1171ceed6543644",
      "title": "Riley"
    },
    "generator": "Sketchfab-12.70.0",
    "version": "2.0"
  },
  "bufferViews": [
    {
      "buffer": 0,
      "byteLength": 229044,
      "name": "floatBufferViews",
      "target": 34963
    },
    {
      "buffer": 0,
      "byteLength": 100240,
      "byteOffset": 229044,
      "byteStride": 8,
      "name": "floatBufferViews",
      "target": 34962
    },
    {
      "buffer": 0,
      "byteLength": 300720,
      "byteOffset": 329284,
      "byteStride": 12,
      "name": "floatBufferViews",
      "target": 34962
    }
  ],
  "buffers": [
    {
      "byteLength": 630004,
      "uri": "scene.bin"
    }
  ],
  "images": [
    {
      "uri": "textures/mtl_dog_a_body_ac_baseColor.png"
    },
    {
      "uri": "textures/mtl_dog_a_eye_a_baseColor.png"
    },
    {
      "uri": "textures/mtl_dog_a_gear_a_baseColor.png"
    },
    {
      "uri": "textures/mtl_dog_a_head_aa_baseColor.png"
    },
    {
      "uri": "textures/mtl_dog_a_mouth_a_baseColor.png"
    },
    {
      "uri": "textures/mtl_prototype_dog_a_fur_baseColor.png"
    },
    {
      "uri": "textures/mtl_shiny_lense_eye_baseColor.png"
    }
  ],
  "materials": [
    {
      "doubleSided": true,
      "name": "mtl_dog_a_body_ac",
      "pbrMetallicRoughness": {
        "baseColorTexture": {
          "index": 0
        },
        "metallicFactor": 0.0,
        "roughnessFactor": 0.8063508326896291
      }
    },
    {
      "doubleSided": true,
      "name": "mtl_dog_a_eye_a",
      "pbrMetallicRoughness": {
        "baseColorTexture": {
          "index": 1
        },
        "metallicFactor": 0.0,
        "roughnessFactor": 0.0
      }
    },
    {
      "doubleSided": true,
      "name": "mtl_dog_a_gear_a",
      "pbrMetallicRoughness": {
        "baseColorTexture": {
          "index": 2
        },
        "metallicFactor": 0.0,
        "roughnessFactor": 0.8063508326896291
      }
    },
    {
      "doubleSided": true,
      "name": "mtl_dog_a_head_aa",
      "pbrMetallicRoughness": {
        "baseColorTexture": {
          "index": 3
        },
        "metallicFactor": 0.0,
        "roughnessFactor": 0.8063508326896291
      }
    },
    {
      "doubleSided": true,
      "name": "mtl_dog_a_mouth_a",
      "pbrMetallicRoughness": {
        "baseColorTexture": {
          "index": 4
        },
        "metallicFactor": 0.0,
        "roughnessFactor": 0.8063508326896291
      }
    },
    {
      "alphaMode": "BLEND",
      "doubleSided": true,
      "name": "mtl_prototype_dog_a_fur",
      "pbrMetallicRoughness": {
        "baseColorTexture": {
          "index": 5
        },
        "metallicFactor": 0.0,
        "roughnessFactor": 0.8063508326896291
      }
    },
    {
      "alphaMode": "BLEND",
      "doubleSided": true,
      "name": "mtl_shiny_lense_eye",
      "pbrMetallicRoughness": {
        "baseColorFactor": [
          1.0,
          1.0,
          1.0,
          0.0
        ],
        "baseColorTexture": {
          "index": 6
        },
        "metallicFactor": 0.0,
        "roughnessFactor": 0.0
      }
    }
  ],
  "meshes": [
    {
      "name": "Object_0",
      "primitives": [
        {
          "attributes": {
            "NORMAL": 1,
            "POSITION": 0,
            "TEXCOORD_0": 2
          },
          "indices": 3,
          "material": 0,
          "mode": 4
        }
      ]
    },
    {
      "name": "Object_1",
      "primitives": [
        {
          "attributes": {
            "NORMAL": 5,
            "POSITION": 4,
            "TEXCOORD_0": 6
          },
          "indices": 7,
          "material": 1,
          "mode": 4
        }
      ]
    },
    {
      "name": "Object_2",
      "primitives": [
        {
          "attributes": {
            "NORMAL": 9,
            "POSITION": 8,
            "TEXCOORD_0": 10
          },
          "indices": 11,
          "material": 2,
          "mode": 4
        }
      ]
    },
    {
      "name": "Object_3",
      "primitives": [
        {
          "attributes": {
            "NORMAL": 13,
            "POSITION": 12,
            "TEXCOORD_0": 14
          },
          "indices": 15,
          "material": 3,
          "mode": 4
        }
      ]
    },
    {
      "name": "Object_4",
      "primitives": [
        {
          "attributes": {
            "NORMAL": 17,
            "POSITION": 16,
            "TEXCOORD_0": 18
          },
          "indices": 19,
          "material": 5,
          "mode": 4
        }
      ]
    },
    {
      "name": "Object_5",
      "primitives": [
        {
          "attributes": {
            "NORMAL": 21,
            "POSITION": 20,
            "TEXCOORD_0": 22
          },
          "indices": 23,
          "material": 6,
          "mode": 4
        }
      ]
    },
    {
      "name": "Object_6",
      "primitives": [
        {
          "attributes": {
            "NORMAL": 25,
            "POSITION": 24,
            "TEXCOORD_0": 26
          },
          "indices": 27,
          "material": 4,
          "mode": 4
        }
      ]
    }
  ],
  "nodes": [
    {
      "children": [
        1
      ],
      "matrix": [
        1.0,
        0.0,
        0.0,
        0.0,
        0.0,
        2.220446049250313e-16,
        -1.0,
        0.0,
        0.0,
        1.0,
        2.220446049250313e-16,
        0.0,
        0.0,
        0.0,
        0.0,
        1.0
      ],
      "name": "Sketchfab_model"
    },
    {
      "children": [
        2,
        3,
        4,
        5,
        6,
        7,
        8
      ],
      "name": "RileyInjured.obj.cleaner.materialmerger.gles"
    },
    {
      "mesh": 0,
      "name": "Object_2"
    },
    {
      "mesh": 1,
      "name": "Object_3"
    },
    {
      "mesh": 2,
      "name": "Object_4"
    },
    {
      "mesh": 3,
      "name": "Object_5"
    },
    {
      "mesh": 4,
      "name": "Object_6"
    },
    {
      "mesh": 5,
      "name": "Object_7"
    },
    {
      "mesh": 6,
      "name": "Object_8"
    }
  ],
  "samplers": [
    {
      "magFilter": 9729,
      "minFilter": 9987,
      "wrapS": 10497,
      "wrapT": 10497
    }
  ],
  "scene": 0,
  "scenes": [
    {
      "name": "Sketchfab_Scene",
      "nodes": [
        0
      ]
    }
  ],
  "textures": [
    {
      "sampler": 0,
      "source": 0
    },
    {
      "sampler": 0,
      "source": 1
    },
    {
      "sampler": 0,
      "source": 2
    },
    {
      "sampler": 0,
      "source": 3
    },
    {
      "sampler": 0,
      "source": 4
    },
    {
      "sampler": 0,
      "source": 5
    },
    {
      "sampler": 0,
      "source": 6
    }
  ]
}
